<svg width="50" height="50" viewBox="0 0 50 50" fill="none" xmlns="http://www.w3.org/2000/svg">
<path d="M26.9785 6.34883C27.4326 5.16993 28.2331 4.15624 29.2747 3.4413C30.3162 2.72636 31.5499 2.34371 32.8132 2.34375" stroke="black" stroke-linecap="round" stroke-linejoin="round"/>
<path d="M42.6782 31.8229C40.2219 37.8226 35.7628 42.1875 32.0312 42.1875H17.9688C12.5 42.1875 5.46875 32.8125 5.46875 22.6563C5.46877 20.394 6.12359 18.1801 7.35415 16.2818C8.58471 14.3836 10.3384 12.882 12.4036 11.9585C14.4687 11.035 16.757 10.7289 18.9923 11.0773C21.2276 11.4257 23.3142 12.4136 25.0004 13.9218L25 13.9214C26.1938 12.8538 27.5937 12.0422 29.1133 11.5367C30.6329 11.0312 32.24 10.8425 33.8354 10.9822C35.4308 11.122 36.9806 11.5872 38.3892 12.3493C39.7978 13.1113 41.0352 14.1539 42.0252 15.4128L42.0251 15.4128C40.59 16.2807 39.4139 17.5176 38.6194 18.9945C37.8248 20.4714 37.4408 22.1344 37.5074 23.8102C37.574 25.486 38.0888 27.1132 38.998 28.5224C39.9073 29.9317 41.1779 31.0713 42.6773 31.8225L42.6782 31.8229Z" stroke="black" stroke-linecap="round" stroke-linejoin="round"/>
</svg>
