<svg width="50" height="50" viewBox="0 0 50 50" fill="none" xmlns="http://www.w3.org/2000/svg">
<path d="M10.1562 39.0625C14.471 39.0625 17.9688 35.5647 17.9688 31.25C17.9688 26.9353 14.471 23.4375 10.1562 23.4375C5.84153 23.4375 2.34375 26.9353 2.34375 31.25C2.34375 35.5647 5.84153 39.0625 10.1562 39.0625Z" stroke="black" stroke-linecap="round" stroke-linejoin="round"/>
<path d="M39.8438 39.0625C44.1585 39.0625 47.6562 35.5647 47.6562 31.25C47.6562 26.9353 44.1585 23.4375 39.8438 23.4375C35.529 23.4375 32.0312 26.9353 32.0312 31.25C32.0312 35.5647 35.529 39.0625 39.8438 39.0625Z" stroke="black" stroke-linecap="round" stroke-linejoin="round"/>
<path d="M10.1562 12.5H15.4687L25.7812 31.25" stroke="black" stroke-linecap="round" stroke-linejoin="round"/>
<path d="M10.1562 31.25L18.9063 18.75H32.9688" stroke="black" stroke-linecap="round" stroke-linejoin="round"/>
<path d="M35.9375 12.5H29.5312L39.8438 31.25" stroke="black" stroke-linecap="round" stroke-linejoin="round"/>
</svg>
