<svg width="50" height="50" viewBox="0 0 50 50" fill="none" xmlns="http://www.w3.org/2000/svg">
<path d="M32.8125 20.3125H17.1875C13.7357 20.3125 10.9375 23.1107 10.9375 26.5625V28.125C10.9375 31.5768 13.7357 34.375 17.1875 34.375H32.8125C36.2643 34.375 39.0625 31.5768 39.0625 28.125V26.5625C39.0625 23.1107 36.2643 20.3125 32.8125 20.3125Z" stroke="black" stroke-linecap="round" stroke-linejoin="round"/>
<path d="M17.9688 28.9062C18.8317 28.9062 19.5312 28.2067 19.5312 27.3438C19.5312 26.4808 18.8317 25.7812 17.9688 25.7812C17.1058 25.7812 16.4062 26.4808 16.4062 27.3438C16.4062 28.2067 17.1058 28.9062 17.9688 28.9062Z" fill="black"/>
<path d="M32.0312 28.9062C32.8942 28.9062 33.5938 28.2067 33.5938 27.3438C33.5938 26.4808 32.8942 25.7812 32.0312 25.7812C31.1683 25.7812 30.4688 26.4808 30.4688 27.3438C30.4688 28.2067 31.1683 28.9062 32.0312 28.9062Z" fill="black"/>
<path d="M4.6875 12.5C4.6875 11.2568 5.18136 10.0645 6.06044 9.18544C6.93951 8.30636 8.1318 7.8125 9.375 7.8125C10.6182 7.8125 11.8105 8.30636 12.6896 9.18544C13.5686 10.0645 14.0625 11.2568 14.0625 12.5H35.9375C35.9375 11.2568 36.4314 10.0645 37.3104 9.18544C38.1895 8.30636 39.3818 7.8125 40.625 7.8125C41.8682 7.8125 43.0605 8.30636 43.9396 9.18544C44.8186 10.0645 45.3125 11.2568 45.3125 12.5V28.125C45.3125 31.4402 43.9955 34.6196 41.6513 36.9638C39.3071 39.308 36.1277 40.625 32.8125 40.625H17.1875C13.8723 40.625 10.6929 39.308 8.34867 36.9638C6.00446 34.6196 4.6875 31.4402 4.6875 28.125V12.5Z" stroke="black" stroke-linecap="round" stroke-linejoin="round"/>
</svg>
