<svg width="50" height="50" viewBox="0 0 50 50" fill="none" xmlns="http://www.w3.org/2000/svg">
<path d="M29.6875 21.0938H35.9375" stroke="black" stroke-linecap="round" stroke-linejoin="round"/>
<path d="M14.0625 21.0938H20.3125" stroke="black" stroke-linecap="round" stroke-linejoin="round"/>
<path d="M17.1875 17.9688V24.2188" stroke="black" stroke-linecap="round" stroke-linejoin="round"/>
<path d="M33.5964 10.8867L16.4062 10.9375C14.0183 10.9377 11.7068 11.779 9.87748 13.3137C8.04813 14.8484 6.81782 16.9784 6.40253 19.3299L6.4042 19.3302L3.20803 35.7682C3.00615 36.9136 3.17466 38.0935 3.68909 39.1366C4.20352 40.1797 5.03708 41.0317 6.0687 41.5687C7.10033 42.1057 8.27629 42.2999 9.42581 42.1231C10.5753 41.9462 11.6385 41.4075 12.461 40.5852L12.4607 40.5849L20.9051 31.25L33.5964 31.1992C36.29 31.1992 38.8732 30.1292 40.7779 28.2245C42.6826 26.3199 43.7526 23.7366 43.7526 21.043C43.7526 18.3494 42.6826 15.7661 40.7779 13.8614C38.8732 11.9567 36.29 10.8867 33.5964 10.8867V10.8867Z" stroke="black" stroke-linecap="round" stroke-linejoin="round"/>
<path d="M43.5993 19.2793L46.7928 35.7682C46.9947 36.9136 46.8262 38.0935 46.3118 39.1366C45.7973 40.1797 44.9638 41.0316 43.9322 41.5687C42.9005 42.1057 41.7246 42.2999 40.575 42.123C39.4255 41.9462 38.3623 41.4075 37.5398 40.5851L37.5402 40.5848L29.1016 31.2172" stroke="black" stroke-linecap="round" stroke-linejoin="round"/>
</svg>
