<svg width="13" height="13" viewBox="0 0 13 13" fill="none" xmlns="http://www.w3.org/2000/svg">
<path d="M6.33203 10.5791C6.33203 10.5791 1.88867 8.09082 1.88867 5.06934C1.88876 4.53531 2.07381 4.01779 2.41234 3.60477C2.75088 3.19175 3.22201 2.90873 3.74564 2.80382C4.26926 2.69891 4.81306 2.77859 5.28458 3.02932C5.75609 3.28004 6.12622 3.68633 6.33203 4.17911L6.33203 4.17912C6.53784 3.68634 6.90797 3.28005 7.37948 3.02932C7.851 2.7786 8.3948 2.69891 8.91842 2.80382C9.44205 2.90873 9.91318 3.19175 10.2517 3.60477C10.5903 4.01779 10.7753 4.53531 10.7754 5.06934C10.7754 8.09082 6.33203 10.5791 6.33203 10.5791Z" stroke="white" stroke-width="0.56875" stroke-linecap="round" stroke-linejoin="round"/>
</svg>
