<svg width="50" height="50" viewBox="0 0 50 50" fill="none" xmlns="http://www.w3.org/2000/svg">
<path d="M14.0625 6.25H40.625C41.0394 6.25 41.4368 6.41462 41.7299 6.70765C42.0229 7.00067 42.1875 7.3981 42.1875 7.8125V28.125C42.1875 28.5394 42.0229 28.9368 41.7299 29.2299C41.4368 29.5229 41.0394 29.6875 40.625 29.6875H9.375C8.9606 29.6875 8.56317 29.5229 8.27015 29.2299C7.97712 28.9368 7.8125 28.5394 7.8125 28.125V12.5C7.8125 10.8424 8.47098 9.25268 9.64308 8.08058C10.8152 6.90848 12.4049 6.25 14.0625 6.25V6.25Z" stroke="black" stroke-linecap="round" stroke-linejoin="round"/>
<path d="M21.875 29.6875L20.3125 40.625C20.3125 41.8682 20.8064 43.0605 21.6854 43.9396C22.5645 44.8186 23.7568 45.3125 25 45.3125C26.2432 45.3125 27.4355 44.8186 28.3146 43.9396C29.1936 43.0605 29.6875 41.8682 29.6875 40.625L28.125 29.6875" stroke="black" stroke-linecap="round" stroke-linejoin="round"/>
<path d="M7.8125 21.875H42.1875" stroke="black" stroke-linecap="round" stroke-linejoin="round"/>
<path d="M32.8125 6.25V14.0625" stroke="black" stroke-linecap="round" stroke-linejoin="round"/>
</svg>
