<svg width="50" height="50" viewBox="0 0 50 50" fill="none" xmlns="http://www.w3.org/2000/svg">
<path d="M12.5009 42.1874C12.2957 42.1874 12.0925 42.147 11.903 42.0685C11.7134 41.99 11.5412 41.8749 11.3961 41.7298C11.251 41.5847 11.1359 41.4124 11.0574 41.2229C10.9788 41.0333 10.9384 40.8301 10.9384 40.6249L10.9385 32.2861C10.105 32.6809 9.18512 32.8585 8.26452 32.8023C7.34392 32.7461 6.45249 32.458 5.67314 31.9648C4.89379 31.4715 4.25184 30.7892 3.807 29.9813C3.36217 29.1733 3.12891 28.266 3.12891 27.3437C3.12891 26.4214 3.36217 25.514 3.807 24.7061C4.25184 23.8981 4.89379 23.2158 5.67314 22.7226C6.45249 22.2294 7.34392 21.9413 8.26452 21.8851C9.18512 21.8289 10.105 22.0065 10.9385 22.4012L10.9384 14.0624C10.9384 13.8572 10.9788 13.6541 11.0574 13.4645C11.1359 13.2749 11.251 13.1027 11.3961 12.9576C11.5412 12.8125 11.7134 12.6974 11.903 12.6189C12.0926 12.5403 12.2958 12.4999 12.5009 12.4999L21.621 12.5C21.2262 11.6665 21.0486 10.7466 21.1048 9.82603C21.161 8.90544 21.4491 8.01401 21.9423 7.23466C22.4355 6.45531 23.1179 5.81336 23.9258 5.36853C24.7338 4.92369 25.6411 4.69043 26.5634 4.69043C27.4857 4.69043 28.393 4.92369 29.201 5.36853C30.0089 5.81336 30.6912 6.45531 31.1845 7.23466C31.6777 8.01401 31.9658 8.90544 32.022 9.82603C32.0782 10.7466 31.9006 11.6665 31.5058 12.5L40.6258 12.4999C41.0402 12.4999 41.4377 12.6645 41.7307 12.9576C42.0237 13.2506 42.1883 13.648 42.1883 14.0624L42.1884 22.4012C41.3549 22.0065 40.435 21.8289 39.5144 21.8851C38.5938 21.9413 37.7024 22.2294 36.9231 22.7226C36.1437 23.2158 35.5018 23.8981 35.0569 24.7061C34.6121 25.514 34.3788 26.4214 34.3788 27.3437C34.3788 28.266 34.6121 29.1733 35.0569 29.9813C35.5018 30.7892 36.1437 31.4715 36.9231 31.9648C37.7024 32.458 38.5938 32.7461 39.5144 32.8023C40.435 32.8584 41.3549 32.6809 42.1884 32.2861L42.1883 40.6249C42.1883 41.0393 42.0237 41.4368 41.7307 41.7298C41.4377 42.0228 41.0402 42.1874 40.6258 42.1874L12.5009 42.1874Z" stroke="black" stroke-linecap="round" stroke-linejoin="round"/>
</svg>
