<svg width="31" height="30" viewBox="0 0 31 30" fill="none" xmlns="http://www.w3.org/2000/svg">
<path d="M31 0H1V30H31V0Z" fill="white"/>
<path d="M5.6875 7.5H26.1268C26.2641 7.5 26.3997 7.53016 26.5241 7.58835C26.6485 7.64655 26.7585 7.73135 26.8465 7.83676C26.9345 7.94218 26.9983 8.06564 27.0333 8.1984C27.0683 8.33117 27.0737 8.47001 27.0492 8.60511L25.0049 19.8551C24.9656 20.0711 24.8518 20.2665 24.6832 20.4072C24.5147 20.5479 24.3021 20.625 24.0825 20.625H8.86546C8.64599 20.625 8.43348 20.548 8.26494 20.4074C8.09641 20.2668 7.98254 20.0716 7.94316 19.8557L4.97552 3.58181C4.93614 3.36591 4.82227 3.17066 4.65374 3.03008C4.48521 2.8895 4.27269 2.8125 4.05323 2.8125H1.9375" fill="white"/>
<path d="M5.6875 7.5H26.1268C26.2641 7.5 26.3997 7.53016 26.5241 7.58835C26.6485 7.64655 26.7585 7.73135 26.8465 7.83676C26.9345 7.94218 26.9983 8.06563 27.0333 8.1984C27.0683 8.33117 27.0737 8.47001 27.0492 8.60511L25.0049 19.8551C24.9656 20.0711 24.8518 20.2665 24.6832 20.4072C24.5147 20.5479 24.3021 20.625 24.0825 20.625H8.86546C8.64599 20.625 8.43348 20.548 8.26494 20.4074C8.09641 20.2668 7.98254 20.0716 7.94316 19.8557L4.97552 3.58181C4.93614 3.36591 4.82227 3.17066 4.65374 3.03008C4.48521 2.8895 4.27269 2.8125 4.05323 2.8125H1.9375" stroke="#FF0000" stroke-width="2" stroke-linecap="round" stroke-linejoin="round"/>
<path d="M9.4375 26.7188C10.2142 26.7188 10.8438 26.0892 10.8438 25.3125C10.8438 24.5358 10.2142 23.9062 9.4375 23.9062C8.66085 23.9062 8.03125 24.5358 8.03125 25.3125C8.03125 26.0892 8.66085 26.7188 9.4375 26.7188Z" fill="#FF0000"/>
<path d="M23.5 26.7188C24.2767 26.7188 24.9062 26.0892 24.9062 25.3125C24.9062 24.5358 24.2767 23.9062 23.5 23.9062C22.7233 23.9062 22.0938 24.5358 22.0938 25.3125C22.0938 26.0892 22.7233 26.7188 23.5 26.7188Z" fill="#FF0000"/>
</svg>
