<svg width="26" height="24" viewBox="0 0 26 24" fill="none" xmlns="http://www.w3.org/2000/svg">
<path d="M13 22.3125C13 22.3125 1.28125 15.75 1.28125 7.78126C1.28149 6.37282 1.76952 5.00794 2.66236 3.91866C3.5552 2.82938 4.79774 2.08295 6.17874 1.80627C7.55973 1.52959 8.99393 1.73974 10.2375 2.40099C11.481 3.06224 12.4572 4.13377 13 5.43341L13 5.43342C13.5428 4.13378 14.5189 3.06224 15.7625 2.40099C17.0061 1.73974 18.4403 1.52959 19.8213 1.80627C21.2023 2.08295 22.4448 2.82938 23.3376 3.91866C24.2305 5.00794 24.7185 6.37282 24.7188 7.78126C24.7188 15.75 13 22.3125 13 22.3125Z" fill="white" stroke="#FF0000" stroke-width="2" stroke-linecap="round" stroke-linejoin="round"/>
</svg>
