<svg width="30" height="30" viewBox="0 0 30 30" fill="none" xmlns="http://www.w3.org/2000/svg">
<path d="M30 0H0V30H30V0Z" fill="white"/>
<path d="M15 18.75C19.1421 18.75 22.5 15.3921 22.5 11.25C22.5 7.10786 19.1421 3.75 15 3.75C10.8579 3.75 7.5 7.10786 7.5 11.25C7.5 15.3921 10.8579 18.75 15 18.75Z" stroke="#FF0000" stroke-width="2" stroke-linecap="round" stroke-linejoin="round"/>
<path d="M3.63086 25.3114C4.78347 23.3164 6.4408 21.6598 8.43635 20.508C10.4319 19.3563 12.6954 18.75 14.9995 18.75C17.3035 18.75 19.567 19.3564 21.5626 20.5082C23.5581 21.6599 25.2154 23.3166 26.3679 25.3116" stroke="#FF0000" stroke-width="2" stroke-linecap="round" stroke-linejoin="round"/>
</svg>
